<svg version="1.2" xmlns="http://www.w3.org/2000/svg" viewBox="0 0 1640 450" width="1640" height="450"><style>.a{fill:#ff164e}.b{fill:#fff}</style><path  d="m10.5 336.7h32.1q16.2 0 27.6 6 11.5 5.8 17.6 16.8 6.3 11 6.3 26.1 0 15.1-6.3 25.9-6.1 10.8-17.6 16.7-11.4 5.8-27.6 5.8h-32.1zm11.2 87.5h20.9q19.9 0 30.1-10.1 10.1-10.2 10.1-28.5 0-18.5-10.1-28.8-10.2-10.4-30.1-10.4h-20.9zm168.8 10.7q-10.3 0-19.2-3.6-8.8-3.6-15.5-10.1-6.5-6.7-10.2-15.7-3.7-9.2-3.7-20.2 0-11 3.7-20 3.7-9.2 10.2-15.7 6.7-6.7 15.5-10.3 8.9-3.6 19.2-3.6 10.1 0 18.9 3.6 8.9 3.6 15.4 10.3 6.5 6.5 10.2 15.7 3.7 9 3.7 20 0 11-3.7 20.2-3.7 9-10.2 15.7-6.5 6.5-15.4 10.1-8.8 3.6-18.9 3.6zm0-9.7q10.4 0 18.7-4.9 8.4-4.8 13.2-13.7 4.9-9.1 4.9-21.3 0-12.3-4.9-21.2-4.8-9.1-13.2-13.8-8.3-4.9-18.7-4.9-10.6 0-19.1 4.9-8.3 4.7-13.2 13.8-4.9 8.9-4.9 21.2 0 12.2 4.9 21.3 4.9 8.9 13.2 13.7 8.5 4.9 19.1 4.9zm95.9-39.9q0-11 3.6-20 3.6-9.2 10.2-15.7 6.7-6.7 15.3-10.3 8.7-3.6 19-3.6 15 0 26.3 7 11.4 6.9 17.3 19.7l-9.1 3.3q-3.2-6.8-8.5-11.1-5.3-4.4-11.9-6.7-6.7-2.2-14.1-2.2-10.4 0-18.7 4.7-8.4 4.8-13.3 13.7-4.7 8.9-4.7 21.2 0 12.2 4.7 21.1 4.9 8.9 13.3 13.8 8.3 4.7 18.7 4.7 7.5 0 14.4-2.3 6.8-2.4 12.2-7.4 5.6-5 8.9-12.5l9 3.3q-6 14.3-17.5 21.7-11.5 7.2-27 7.2-10.3 0-19-3.6-8.6-3.6-15.3-10.3-6.6-6.6-10.2-15.7-3.6-9.1-3.6-20zm147.6 12.7v-61.3h11.1v61.4q0 9.6 3.5 15.6 3.4 5.9 9.3 8.7 6 2.8 13.5 2.8 7.3 0 13.2-2.8 5.8-2.8 9.3-8.7 3.5-6 3.5-15.6v-61.4h11.1v61.3q0 9.6-3.1 16.5-2.9 6.9-8.2 11.5-5.3 4.5-11.9 6.7-6.7 2.2-14.1 2.2-10 0-18.5-3.9-8.5-4-13.6-12.2-5.1-8.2-5.1-20.8zm144.4-39.4v75.4h-11.1v-97.3h12.2l36.2 82 36-82h12.1v97.3h-11.1v-75.4l-33.1 75.4h-7.9zm208.7-22v9.7h-52.7v33.2h39.6v9.8h-39.6v34.8h52.7v9.8h-63.8v-97.3zm120 0h11.1v97.3h-11.3l-52-79.5v79.5h-11.1v-97.3h11.3l52 79.3zm64.8 9.8v-9.8h73v9.8h-30.9v87.5h-11.1v-87.5zm188.1 87.5l-31.8-87.5h-4.6l-32.1 87.5h-11.3l35.6-97.3h20l35.5 97.3zm-62.4-25.6v-9.7h56.7v9.7zm109-61.9v-9.8h73v9.8h-30.9v87.5h-11.1v-87.5zm126.6 87.5v-97.3h11.1v97.3zm113.3 1q-10.3 0-19.2-3.6-8.7-3.7-15.4-10.2-6.5-6.7-10.3-15.7-3.6-9.2-3.6-20.1 0-11 3.6-20 3.8-9.2 10.3-15.7 6.7-6.7 15.4-10.3 8.9-3.6 19.2-3.6 10.2 0 18.9 3.6 8.9 3.6 15.5 10.3 6.5 6.5 10.1 15.7 3.8 9 3.8 20 0 10.9-3.8 20.1-3.6 9-10.1 15.7-6.6 6.5-15.5 10.2-8.7 3.6-18.9 3.6zm0-9.8q10.4 0 18.8-4.8 8.3-4.9 13.2-13.8 4.9-9 4.9-21.2 0-12.4-4.9-21.3-4.9-9-13.2-13.7-8.4-4.9-18.8-4.9-10.6 0-19 4.9-8.4 4.7-13.2 13.7-4.9 8.9-4.9 21.3 0 12.2 4.9 21.2 4.8 8.9 13.2 13.8 8.4 4.8 19 4.8zm165.1-88.5h11.1v97.3h-11.3l-52-79.5v79.5h-11.1v-97.3h11.3l52 79.4z"/><path  d="m336.8 223v-112h27.8v43.5h42.3v-43.5h27.8v112h-27.8v-45.1h-42.3v45.1zm159.2 1.1q-12 0-22.4-4.1-10.4-4.2-18.4-11.7-7.8-7.7-12.3-18.1-4.5-10.6-4.5-23.2 0-12.6 4.5-23 4.5-10.6 12.3-18.1 8-7.7 18.4-11.9 10.4-4.1 22.4-4.1 12 0 22.4 4.1 10.6 4.2 18.4 11.9 7.9 7.5 12.4 18.1 4.4 10.4 4.4 23 0 12.6-4.4 23.2-4.5 10.4-12.5 18.1-7.9 7.5-18.3 11.7-10.4 4.1-22.4 4.1zm0-23.8q8.8 0 15.4-4.3 6.6-4.4 10.2-11.9 3.7-7.5 3.7-17.1 0-9.8-3.7-17.1-3.6-7.5-10.2-11.9-6.6-4.3-15.4-4.3-8.9 0-15.5 4.3-6.5 4.4-10.2 11.9-3.5 7.3-3.5 17.1 0 9.6 3.5 17.1 3.7 7.5 10.2 11.9 6.6 4.3 15.5 4.3zm130.9-89.3h27.9v112h-28l-41.8-67.8v67.8h-27.8v-112h28l41.7 68.3zm89.1 113.1q-12 0-22.4-4.1-10.4-4.2-18.4-11.7-7.8-7.7-12.3-18.1-4.5-10.5-4.5-23.2 0-12.6 4.5-23 4.5-10.6 12.3-18.1 8-7.7 18.4-11.8 10.4-4.2 22.4-4.2 12 0 22.4 4.2 10.6 4.1 18.4 11.8 7.9 7.5 12.4 18.1 4.4 10.4 4.4 23 0 12.7-4.4 23.2-4.5 10.4-12.5 18.1-7.9 7.5-18.3 11.7-10.4 4.1-22.4 4.1zm0-23.8q8.8 0 15.4-4.3 6.6-4.3 10.2-11.9 3.7-7.5 3.7-17.1 0-9.7-3.7-17.1-3.6-7.5-10.2-11.8-6.6-4.4-15.4-4.4-8.9 0-15.5 4.4-6.5 4.3-10.2 11.8-3.5 7.4-3.5 17.1 0 9.6 3.5 17.1 3.7 7.6 10.2 11.9 6.6 4.3 15.5 4.3zm124.2-39.5h21.9q5 0 8.2-1.5 3.3-1.6 4.9-4.6 1.8-3 1.8-7.2 0-6.1-3.7-9.6-3.7-3.5-11.2-3.5h-21.9zm65.1-13.3q0 6.7-2.5 13.3-2.4 6.5-7.6 11.8-4.9 5.3-12.8 8.5-7.8 3-18.5 3h-23.7v38.9h-27.8v-112h51.5q13.9 0 23 5.1 9.3 5 13.8 13.3 4.6 8.3 4.6 18.1zm68.3 0q0-6.1-3.6-9.6-3.7-3.5-11.2-3.5h-22v26.4h22q4.9 0 8.1-1.5 3.4-1.6 5-4.6 1.7-3 1.7-7.2zm-64.6-36.5h51.5q13.9 0 23.1 5.1 9.2 5 13.7 13.3 4.7 8.3 4.7 18.1 0 6.7-2.6 13.3-2.4 6.5-7.5 11.8-5 5.3-12.8 8.5-7.9 3-18.6 3h-23.7v38.9h-27.8zm36.5 63.5h29.1l29.4 48.5h-30.7zm115.5 49.6q-12 0-22.4-4.1-10.4-4.2-18.4-11.7-7.8-7.7-12.3-18.1-4.5-10.6-4.5-23.2 0-12.6 4.5-23 4.5-10.6 12.3-18.1 8-7.7 18.4-11.9 10.4-4.1 22.4-4.1 12 0 22.4 4.1 10.6 4.2 18.4 11.9 7.9 7.5 12.4 18.1 4.4 10.4 4.4 23 0 12.6-4.4 23.2-4.5 10.4-12.5 18.1-7.9 7.5-18.3 11.7-10.4 4.1-22.4 4.1zm0-23.8q8.8 0 15.4-4.3 6.6-4.4 10.2-11.9 3.7-7.5 3.7-17.1 0-9.8-3.7-17.1-3.6-7.5-10.2-11.9-6.6-4.3-15.4-4.3-8.9 0-15.5 4.3-6.5 4.4-10.2 11.9-3.5 7.3-3.5 17.1 0 9.6 3.5 17.1 3.7 7.5 10.2 11.9 6.6 4.3 15.5 4.3zm53.6-65.9v-23.4h97.5v23.4h-34.9v88.6h-27.8v-88.6zm151 89.7q-12 0-22.4-4.1-10.4-4.2-18.4-11.7-7.8-7.7-12.3-18.1-4.5-10.6-4.5-23.2 0-12.6 4.5-23 4.5-10.6 12.3-18.1 8-7.7 18.4-11.9 10.4-4.1 22.4-4.1 12 0 22.4 4.1 10.6 4.2 18.4 11.9 7.8 7.5 12.3 18.1 4.5 10.4 4.5 23 0 12.6-4.5 23.2-4.5 10.4-12.5 18.1-7.8 7.5-18.2 11.7-10.4 4.1-22.4 4.1zm0-23.8q8.8 0 15.4-4.3 6.5-4.4 10.2-11.9 3.7-7.5 3.7-17.1 0-9.8-3.7-17.1-3.7-7.5-10.2-11.9-6.6-4.3-15.4-4.3-9 0-15.5 4.3-6.6 4.4-10.3 11.9-3.5 7.3-3.5 17.1 0 9.6 3.5 17.1 3.7 7.5 10.3 11.9 6.5 4.3 15.5 4.3zm56.8-33.3q0-12.5 4-22.9 4.2-10.5 11.5-18.2 7.5-7.7 17.9-11.9 10.4-4.1 22.9-4.1 18.9 0 32.3 9.4 13.5 9.3 19.2 25.6l-24.1 5.3q-2.9-5.9-6.9-9.6-4-3.8-9.1-5.6-5.1-1.8-11.4-1.8-8.9 0-15.3 4.5-6.4 4.5-9.8 12.2-3.4 7.5-3.4 17.1 0 9.8 3.4 17.4 3.4 7.6 9.8 12 6.4 4.4 15.3 4.4 6.3 0 11.7-1.8 5.4-1.9 9.8-6.1 4.3-4.3 7.3-11.2l23.5 4.8q-5.7 17.9-19.3 27.9-13.6 9.7-33 9.7-12.5 0-22.9-4.1-10.4-4.2-17.9-11.7-7.3-7.7-11.5-18.1-4-10.6-4-23.2zm166.9 57.1q-12 0-22.4-4.1-10.4-4.2-18.4-11.7-7.9-7.7-12.3-18.1-4.5-10.6-4.5-23.2 0-12.6 4.5-23 4.4-10.6 12.3-18.1 8-7.7 18.4-11.9 10.4-4.1 22.4-4.1 12 0 22.4 4.1 10.5 4.2 18.4 11.9 7.8 7.5 12.3 18.1 4.5 10.4 4.5 23 0 12.6-4.5 23.2-4.5 10.4-12.5 18.1-7.8 7.5-18.2 11.7-10.4 4.1-22.4 4.1zm0-23.8q8.8 0 15.3-4.3 6.6-4.4 10.3-11.9 3.7-7.5 3.7-17.1 0-9.8-3.7-17.1-3.7-7.5-10.3-11.9-6.5-4.3-15.3-4.3-9 0-15.5 4.3-6.6 4.4-10.3 11.9-3.5 7.3-3.5 17.1 0 9.6 3.5 17.1 3.7 7.5 10.3 11.9 6.5 4.3 15.5 4.3zm61.1-89.3h27.8v88.6h48.8v23.4h-76.6z"/><path class="a" d="m159.5 319c-88.2 0-159.5-71.3-159.5-159.5 0-88.2 71.3-159.5 159.5-159.5 88.2 0 159.5 71.3 159.5 159.5 0 88.2-71.3 159.5-159.5 159.5z"/><path fill-rule="evenodd" class="b" d="m131.3 42.1c3.3 0.1 5.4 0.2 6.6 0.5 0.9 0.2 2.2 0.7 2.8 1.1 0.6 0.4 1.9 1.3 2.8 2 1 0.7 2.8 2.1 4.2 3.2 1.3 1.1 3.1 2.8 3.9 3.8 0.9 1 2 2.4 2.4 3 0.4 0.7 0.8 1.6 0.9 2.2 0.1 0.9 0.1 1-1.6 2.7q-1.8 1.8-2 2.6c-0.1 0.5-0.3 2-0.5 3.4-0.2 1.4-0.6 4.5-0.9 7-0.2 2.5-0.4 4.6-0.3 4.6 0 0 0.6-0.2 1.3-0.6 0.7-0.4 2.2-1.4 3.3-2.4 1.1-0.9 3.2-2.6 4.5-3.7 1.4-1 4.2-3 6.2-4.3 2.1-1.4 4.4-3 5.2-3.7 0.9-0.7 1.7-1.5 1.9-1.9 0.2-0.4 0.3-1 0.3-1.3 0-0.3-0.2-0.7-0.5-1-0.3-0.3-0.8-0.7-1.1-0.8-0.5-0.3-0.6-0.4-0.3-0.5 0.2-0.1 1.2-0.2 4-0.3l1.9-1.4c1-0.8 2.3-1.5 3-1.7 0.5-0.1 1.5-0.2 2-0.1 0.5 0.1 1.8 0 2.8-0.2 1.1-0.2 3.3-0.5 7.9-0.9l2.6 0.9c2.1 0.7 2.9 0.9 3.8 0.8 0.6 0 1.2 0 1.3 0.1 0 0.1 2.1 1.8 4.7 3.9 2.5 2 5.7 4.6 7.2 5.9 1.4 1.2 3 2.7 3.5 3.3 0.5 0.5 2.2 2.8 3.7 5.1 2.4 3.6 2.7 4.3 3.2 5.9 0.2 1.2 0.4 2.7 0.4 4 0 1.1-0.1 2.6-0.3 3.4-0.2 0.8-0.7 2.1-1.1 2.8-0.4 0.7-1.2 1.7-2.7 3.3l-3-0.6c-1.7-0.3-4.2-0.7-5.9-0.7-2.4-0.1-3.1-0.1-4.6 0.4-1 0.2-2.2 0.5-2.8 0.6-0.6 0.1-1.3 0-2.1-0.4-0.9-0.4-1.1-0.7-1.7-2.2l-1.9 0.1c-1.5 0.1-2.1 0.1-3-0.3-0.8-0.3-1.3-0.7-1.8-1.6-0.8-1-0.9-1.1-1.7-1.1-0.5 0-1.1-0.2-1.3-0.3-0.3-0.3-0.7-0.2-2.1 0.3-1 0.3-2.2 0.6-2.8 0.7-0.9 0.2-1 0.2-1.1-0.3-0.1-0.2-0.1-0.9 0.1-1.4 0.3-0.9 0.3-1.1 0-1.4-0.2-0.2-0.5-0.2-1.5 0-0.7 0.2-2 0.7-2.9 1.1-1.6 0.8-1.8 0.8-2.9 0.6-0.6-0.1-1.8-0.2-2.6-0.1-0.8 0.1-3.1 0.3-5.1 0.5-2.1 0.2-4.3 0.6-5 0.8-0.8 0.2-1.7 0.5-2.2 0.8-0.4 0.2-1.6 0.5-2.5 0.6-0.9 0.1-2.3 0.4-3.1 0.6-0.8 0.3-2.4 1-3.7 1.6-1.2 0.5-2.4 1.1-2.6 1.2-0.2 0.1-0.5 0.9-0.7 2.2-0.2 1.1-0.5 3.6-0.9 5.5-0.4 2.8-0.8 4.3-2.1 7.7-0.8 2.4-1.7 5.2-1.9 6.2-0.2 1.1-0.4 2.6-0.3 5l2 1.1c1 0.6 2.2 1.3 2.7 1.4 0.5 0.2 1 0.3 1.2 0.2 0.3-0.1 0.5-0.4 0.5-0.8 0-0.3 0-0.6 0.1-0.6 0 0 1.3 0.5 2.7 1.1 1.4 0.6 2.8 1.2 3.2 1.4 0.3 0.1 0.6 0.1 0.6 0 0 0-1.5-1-3.4-2.2-1.8-1.2-3.7-2.4-4.1-2.7-0.7-0.6-0.7-0.6-0.2-0.6 0.3-0.1 1.7 0.4 3 0.9 1.4 0.6 3 1.2 3.5 1.5 0.6 0.3 3.2 1.5 10.2 4.4l5.6 0.6c4.4 0.4 6 0.5 7.5 0.3 1.8-0.2 1.9-0.2 2.5 0.3 0.5 0.5 0.8 0.6 1.4 0.5 0.5-0.1 1.6-0.5 2.4-0.9 1.4-0.7 1.6-0.7 1.9-0.4 0.2 0.2 0.8 0.5 1.3 0.7 0.6 0.3 1.6 0.4 5.1 0.4l0.2 1.2c0.1 0.7 0.3 1.6 0.6 2 0.2 0.4 0.7 0.9 1 1.1 0.4 0.3 1.8 0.8 3.1 1.3 1.3 0.5 3 1.2 3.6 1.5 0.7 0.4 2.3 1.3 3.5 2 1.2 0.7 2.8 1.7 3.5 2.1 0.6 0.4 2.1 1.7 3.3 3 1.2 1.2 2.4 2.5 2.7 3 0.4 0.4 0.8 0.9 1.1 1.2 0.2 0.2 0.8 1.1 1.2 1.8 0.5 0.8 1.1 2 1.4 2.7 0.2 0.7 0.5 2.1 0.6 3.1 0.1 1.4 0 2.1-0.4 3.3-0.3 0.9-1 2.3-1.5 3.1-0.5 0.9-1.3 1.8-1.7 2.1-0.4 0.3-1.2 0.7-1.7 0.9-0.7 0.2-2 0.4-3.8 0.4-1.7 0-3.8-0.2-5.5-0.5-1.5-0.3-3.1-0.6-3.7-0.8-0.6-0.3-1.4-0.6-1.8-0.9-0.3-0.2-0.7-0.7-0.7-0.9-0.1-0.4-0.6-0.7-2-1.1-1-0.3-2.8-1-4-1.5-1.2-0.5-3.3-1.6-4.7-2.4-1.3-0.9-3.6-2.3-5-3.3-1.3-0.9-4.5-3.1-7-4.9-4.1-2.9-4.6-3.3-5.7-3.4-0.7-0.1-2.4-0.2-3.8-0.3-1.5-0.1-3.8-0.1-5.2-0.1-1.3 0-2.4 0-2.3-0.1 0.1-0.1 0.6-0.3 1-0.5 0.7-0.3 0.7-0.3-0.5-0.2-0.7 0-1.3-0.1-1.4-0.2-0.1-0.1-0.1-0.3 0.1-0.5 0.4-0.4 0.3-0.4-1.3-0.3-0.9 0.1-2.4 0.2-5 0.5l0.4-0.6c0.2-0.3 1.1-0.9 2.1-1.4 0.9-0.5 1.9-1.1 2.2-1.3 0.2-0.3 0.5-0.6 0.4-0.8 0-0.2-0.2-0.4-0.4-0.5-0.3-0.2-0.9-0.2-1.5-0.1-0.6 0.1-0.9 0.1-0.9 0 0-0.2 0.4-0.5 0.9-0.8 0.6-0.3 0.9-0.6 0.9-0.7-0.1-0.1-3-2-6.6-4.2-3.5-2.1-6.4-4-6.3-4.1 0.1-0.1 0.6-0.1 1.1 0 0.9 0.1 1 0.1 0.8-0.2-0.2-0.2-0.9-0.7-1.7-1.3-0.7-0.5-1.3-0.9-1.4-0.8-0.1 0.1-1.5 3.5-3.2 7.6-1.9 4.9-3.5 8.4-4.4 9.9-0.8 1.4-2.2 3.5-3.2 4.8-1 1.3-3.5 4.1-5.5 6.1-2.1 2-5 4.7-6.5 6-1.5 1.2-4 3.3-5.6 4.5-1.6 1.2-3.8 2.8-5 3.6-2.1 1.4-2.2 1.4-3.3 1.3-0.7-0.1-1.9-0.5-2.8-0.9-0.8-0.4-2-1.2-2.6-1.7-0.5-0.6-1.7-2-2.6-3.1-0.9-1.2-2.3-3.3-3.2-4.7-0.9-1.4-2.3-3.5-3.2-4.7-1-1.1-2.5-3.1-3.4-4.2-0.9-1.2-2.7-3.2-4-4.5-1.3-1.2-3.1-2.9-4-3.7-0.8-0.8-1.5-1.6-1.4-1.7 0-0.2 0.3-0.2 0.7 0 0.4 0.2 1.8 1.3 3.1 2.3 1.3 1.1 2.7 2.3 3.2 2.6 0.5 0.3 1.1 0.5 1.4 0.5 0.4 0 0.7-0.2 0.7-0.4 0-0.2-0.4-1.3-1-2.3-0.6-1-1-2-1-2.1 0.1-0.1 0.6 0.1 1.2 0.4 0.5 0.4 1.2 0.6 1.5 0.5 0.3-0.1 0.5-0.2 0.5-0.3 0.1-0.1-0.5-0.7-1.1-1.4-0.6-0.6-1.7-1.6-2.4-2.2-0.8-0.6-1.8-1.3-2.3-1.5-0.5-0.3-2-1.4-3.2-2.6-1.3-1.1-3-2.5-4-3.1-0.9-0.6-1.9-1.3-3.1-2l1.1-0.2c0.6-0.1 1.3-0.4 1.5-0.6 0.3-0.2 0.4-0.5 0.4-0.7 0-0.2-0.1-0.3-0.3-0.3q-0.2 0 0-0.2 0.2-0.3 3.1 0.2c1.5 0.3 4.1 0.8 5.7 1.2 1.6 0.4 4.7 1.4 7 2.1 2.3 0.8 5.7 2 7.4 2.7 1.8 0.8 3.3 1.3 3.3 1.3 0-0.1-1.2-1.8-2.6-3.8-1.5-2-3.1-3.9-3.5-4.3-0.4-0.4-0.9-1.1-1-1.6-0.1-0.4-0.5-2.4-0.9-4.4-0.4-2-1-4.1-1.2-4.8-0.2-0.6-0.6-1.6-0.8-2.1-0.3-0.5-0.8-1.3-1.1-1.7-0.5-0.6-0.5-0.9-0.4-1.7 0.1-0.5 0-1.1-0.1-1.2-0.1-0.2-0.3-0.3-0.6-0.2-0.4 0.1-0.6-0.1-1.3-1.9-0.4-1.2-1.1-2.6-1.5-3.2-0.4-0.5-0.9-1.1-1.2-1.2-0.5-0.3-0.6-0.4-0.6-3.5 0-1.8 0-5-0.1-7.1-0.1-3.8-0.1-3.9 0.6-5.5 0.4-0.9 1.1-2.4 1.7-3.2 0.5-0.9 0.9-1.8 1-2.2 0.1-0.3 0.4-1 0.7-1.5 0.3-0.5 0.8-1.4 1.9-2.6l2.3 0.5q2.2 0.6 3.1 0.4c0.8-0.1 0.9-0.1 1.2 0.6 0.2 0.4 0.4 0.7 0.5 0.7 0.1 0 0.5-0.2 1-0.4 0.8-0.4 0.8-0.4 1.3 0.1 0.3 0.2 0.7 0.9 1 1.6 0.2 0.6 0.6 2.2 0.8 3.5 0.2 1.4 0.3 2.6 0.3 2.8 0 0.2 0.4 0.3 0.8 0.3 0.5 0 1.7-0.5 2.9-1.2 1.2-0.6 3.6-2 5.4-3.2 1.8-1.1 5.4-3.2 8-4.7 2.6-1.5 6.2-3.5 11.3-6.3v-2c0-1.1-0.1-3.7-0.2-5.6-0.2-2-0.4-4.6-0.6-5.9-0.2-1.2-0.4-2.4-0.5-2.6 0-0.2-1.7-0.9-3.7-1.7-2-0.7-6.2-2.2-9.3-3.1-3.1-1-6-2-6.5-2.2-0.6-0.2-0.9-0.5-0.9-0.5 0.1-0.1 1.4-0.5 2.9-0.9 1.5-0.4 3.9-0.8 5.2-0.9 1.4-0.1 3.1-0.4 3.8-0.6 1-0.3 1.9-0.4 3.4-0.3 1.1 0.1 2.4 0.1 3 0 0.5-0.2 3.1-0.2 5.8-0.2zm43.8 107.9c0.7 0.1 1.5 0.4 2.1 0.8 0.6 0.4 3.2 2.5 6 4.7 2.8 2.2 5.4 4.6 6 5.3 1 1.2 1.1 1.4 1 2.6 0 0.7-0.3 2.1-0.5 3-0.2 0.9-0.4 1.9-0.4 2.1 0 0.3-0.2 1-0.3 1.5-0.2 0.5-0.5 1.2-0.8 1.5-0.3 0.3-0.8 0.5-1.2 0.5-0.3 0-0.6 0-0.6 0.1 0 0-0.1 0.6-0.3 1.3-0.2 1-0.3 4.7-0.3 12.4 0 11 0 11.2-0.7 15.2-0.3 2.2-0.8 4.7-0.9 5.6-0.2 0.8-0.3 1.6-0.3 1.7 0.1 0 0.6-0.2 1.3-0.5 0.6-0.3 1.3-0.5 1.5-0.4 0.2 0.1 0.9-0.1 1.4-0.4 0.6-0.2 1.5-0.8 2.1-1.3 0.5-0.4 1-0.8 0.9-0.9 0-0.1-0.6 0-1.2 0.2-0.7 0.2-1.2 0.4-1.3 0.3 0-0.1 0-0.2 0-0.3 0.1-0.1 0.8-0.6 1.7-1.1 0.8-0.5 2.9-1.9 4.7-3 1.8-1.1 4.8-3.2 6.8-4.5 2-1.4 4.1-2.9 4.7-3.4 0.5-0.5 2.3-2 4-3.3 1.6-1.4 2.9-2.6 2.9-2.7 0-0.1-0.1-0.3-0.1-0.4 0-0.1-0.2-0.1-0.5-0.1-0.3 0.1-1.8 1-3.3 2.1-1.6 1.1-2.9 2-3 2-0.1 0-0.4 0.3-0.8 0.5-0.3 0.3-1.5 1.3-2.7 2.2-1.2 0.8-2.7 1.9-3.4 2.3-0.6 0.4-1.3 0.7-1.4 0.7-0.2 0-0.3-0.2-0.3-0.4 0-0.4 0.4-0.8 1.5-1.5 0.8-0.5 1.9-1.2 2.5-1.7 0.6-0.4 2-1.7 3.2-2.9 1.2-1.2 2.8-2.9 3.5-3.8 0.8-0.9 1.4-1.7 1.4-1.8 0-0.2-0.2-0.3-0.5-0.4-0.2-0.1-0.4-0.2-0.4-0.3 0-0.2 0.8-1.2 1.8-2.4 1.1-1.1 2.6-3.1 3.6-4.4 0.9-1.4 2-3.1 2.5-4 0.5-0.8 1-2 1.2-2.7 0.2-1 0.2-1.2-0.1-1.3-0.2-0.2-0.8-0.3-1.3-0.4-0.6-0.1-1-0.2-1-0.3 0.1-0.1 0.3-0.7 0.7-1.3 0.5-1 0.5-1.3 0.3-2.3-0.2-1.2-0.2-1.2 0.4-1.4 0.3 0 1.6-0.4 2.8-0.8 1.6-0.4 3.3-0.8 5.5-0.9 1.9-0.2 5.1-0.3 7.7-0.2 2.4 0.1 4.5 0.2 4.7 0.3 0.2 0.1 0.9 0.8 1.5 1.6 0.6 0.8 2.2 2.6 3.4 4 1.3 1.4 4.1 4.3 6.2 6.4 2.2 2.2 4.3 4.4 4.7 4.9 0.7 0.9 0.8 1.2 1 2.9 0.1 1 0.4 2.9 0.8 4.2 0.3 1.2 0.6 2.4 0.7 2.7 0.1 0.4-0.1 0.6-1 1.2-1 0.7-1.2 1-1.7 2.4-0.3 0.9-0.8 2-1.1 2.5-0.3 0.4-0.9 1-1.5 1.3-0.5 0.3-1.4 0.8-2 1.1-0.6 0.4-1.8 0.9-2.6 1.1-0.9 0.3-2.9 0.6-4.6 0.8-2.6 0.3-3.2 0.4-5.3 1.3-2 0.9-2.6 1.1-3.6 1-0.9 0-1.2-0.1-1.1-0.4 0.1-0.2 0.1-1 0.1-1.7 0-0.8 0-1.4-0.1-1.5 0-0.1-1.1 0-2.2 0.2-1.2 0.2-3.1 0.6-4.3 1-1.2 0.3-3.1 1-4.2 1.4-1.1 0.5-2.9 1-4.1 1.2-1.1 0.2-2.8 0.6-3.7 0.8-1 0.3-1.9 0.5-2 0.5-0.2 0-1.9 0.5-3.8 1.1-1.9 0.6-6.1 1.9-9.2 3-3.2 1-6.8 2-8 2.2-1.2 0.2-2.9 0.5-3.7 0.6-0.8 0.2-1.8 0.5-2.2 0.7-0.8 0.4-0.9 0.4-1.5 3.5-0.4 1.7-0.6 3.2-0.5 3.2 0.1 0.1 1.9 0.9 4 1.7 2.4 1 5 1.9 6.9 2.3 1.7 0.4 4.9 1.1 7.2 1.5 2.2 0.4 5.6 1 7.5 1.3 2 0.4 4.9 1.1 6.9 1.8 1.9 0.6 4.3 1.3 5.3 1.4 1.3 0.2 2.2 0.2 3 0 0.7-0.1 1.6-0.4 2-0.6 0.3-0.2 0.8-0.3 0.9-0.3 0.1 0 0.3 0.2 0.4 0.4 0 0.2 0.4 0.5 0.7 0.7 0.4 0.2 1.3 0.5 2.1 0.7 0.8 0.2 3.1 0.4 5.2 0.6 2 0.1 4.8 0.3 6.3 0.4 1.4 0.2 3.1 0.2 3.7 0.1 0.5-0.1 1-0.3 1.1-0.5 0-0.2-0.5-0.3-2-0.3-1.2 0-2.4-0.1-2.7-0.3-0.3-0.1-0.6-0.4-0.6-0.6-0.1-0.2 0.9-0.8 2.3-1.5 1.4-0.6 3-1.5 3.5-1.9 0.6-0.4 1.3-0.7 1.6-0.7 0.3 0 0.9 0.3 1.4 0.6 0.5 0.3 1.4 1.2 3.6 4.3l-0.3 1.7c-0.2 1.2-0.2 2.7-0.1 5.7 0.2 2.2 0.4 4.5 0.6 5.1q0.2 1.1 1.3 2.2c0.6 0.6 1.6 1.3 2.2 1.6 0.6 0.3 1.6 1.1 2.1 1.7 0.6 0.6 1.7 1.4 2.4 1.8 0.7 0.4 1.6 1.1 1.9 1.5 0.4 0.4 0.9 1.4 1.3 2.1 0.4 0.8 1.3 2 1.9 2.7 0.9 1 1.3 1.7 1.5 2.5 0.2 0.7 0.8 2.1 1.4 3.2 0.6 1.2 1.3 2.6 1.6 3.1 0.2 0.6 0.6 1.8 0.8 2.7 0.3 1.2 0.3 1.7 0.1 2.6-0.1 0.6-0.5 1.3-0.9 1.7-0.4 0.4-1.1 0.7-1.8 0.9-0.7 0.1-1.8 0.4-2.5 0.7-1.1 0.4-1.4 0.5-1.5 1.1 0 0.4-0.5 1.3-1.7 3.4l-1.8 0.1c-1 0.1-2.9 0.4-4.2 0.7-1.6 0.4-3.3 0.5-7.9 0.6l-2.8-1.7c-1.6-1-3.8-2.4-4.9-3.2-1.9-1.4-2-1.5-4.9-2-1.6-0.4-3.7-0.7-4.6-0.8-1-0.1-1.7-0.3-1.7-0.4 0-0.1 0.3-0.3 0.6-0.5 0.4-0.2 0.8-0.5 0.9-0.7 0-0.2 0.1-0.5 0-0.6-0.1-0.2-0.7-0.3-1.4-0.3-1.2 0-1.3 0-1.3-0.5 0.1-0.5 0-0.5-0.9-0.6-0.5 0-1.4-0.3-1.9-0.6-0.5-0.3-2.2-1-3.7-1.5-1.5-0.5-3.6-1.2-4.7-1.7-1.2-0.4-2.7-0.9-3.4-1-0.7-0.2-1.5-0.4-1.7-0.5-0.3-0.2-0.2-0.3 0.9-1.2l-0.6-0.2c-0.3-0.1-1.1-0.4-1.8-0.6-0.7-0.2-3.9-1.2-7.3-2.1-3.3-0.9-7.7-2-9.8-2.5-2-0.4-5.7-1.1-8.2-1.5-2.5-0.4-4.8-0.8-5.1-0.9-0.5-0.1-0.5-0.2 0.3-0.4 0.7-0.1 1.8 0 3.9 0.3 1.5 0.3 3.8 0.7 5.1 1 1.2 0.2 3.1 0.5 4.1 0.5 1.4 0 2.1-0.2 2.8-0.5 0.5-0.3 1.5-0.6 2.3-0.7 0.7-0.1 1.2-0.2 1.1-0.3-0.1-0.1-2-0.4-4.2-0.8-2.3-0.3-5.7-0.8-7.8-1.1-2-0.2-6.4-0.6-9.8-0.7-3.3-0.2-6.5-0.2-7.1-0.2-1.1 0.2-1.1 0.2-3.9 3.8-1.5 2-3 4.2-3.3 4.9-0.4 0.6-1 1.7-1.5 2.4-0.5 0.6-1.4 1.7-2 2.3-0.6 0.6-2.1 1.9-3.3 2.9-1.2 1-2.5 1.9-3 2.1-0.7 0.3-1.1 0.4-1.7 0.2-0.7-0.2-1.1-0.1-7.7 3.6h-1.9c-1.1 0-2.3-0.2-2.6-0.3-0.4-0.2-0.9-0.9-1.7-2.4-0.6-1.2-1.4-2.7-1.8-3.3-0.4-0.6-1-1.3-1.8-2.1l-0.9 0.7c-0.5 0.3-2.2 1.2-3.7 1.9-1.5 0.7-3.1 1.6-3.6 2-0.5 0.4-1 0.6-1.2 0.5-0.2-0.1-0.7-0.2-1-0.3-0.5-0.1-1.3 0.1-2 0.4-0.7 0.2-1.7 0.5-2.2 0.5-0.5 0-1-0.2-1.3-0.4-0.2-0.3-0.7-0.9-1.2-1.5-0.4-0.6-1.3-1.5-2.1-2.1-0.7-0.6-1.6-1.4-2.1-1.8-0.4-0.4-1.7-1.9-2.8-3.3-1.1-1.4-2.8-3.7-3.9-5.2-1-1.6-2.4-3.9-3-5.2-0.7-1.3-1.9-3.1-2.7-4.1-0.8-0.9-1.9-2-2.5-2.4q-1.1-0.6-1.1-1.1c0-0.3 0.1-0.7 0.2-1 0.2-0.3 0.1-0.9-0.2-1.7-0.3-0.9-0.5-2.2-0.5-3.5-0.1-1.6-0.2-2.4-0.6-3.3-0.3-0.6-0.7-1.1-0.8-1.1-0.1 0-0.3 0.4-0.4 0.9 0 0.5-0.3 1.5-0.5 2.2-0.3 0.7-0.9 2.7-1.5 4.4-0.5 1.7-1.2 4-1.6 5-0.3 1.1-1.1 3.2-1.9 4.8-0.7 1.5-1.4 2.9-1.5 3-0.1 0-0.5 0.7-0.9 1.6-0.4 0.8-1.3 2.2-1.9 3.2-0.6 0.9-1.8 2.7-2.7 4-1 1.2-3.1 3.6-4.7 5.2-1.7 1.7-3.6 3.4-4.3 3.8-0.8 0.4-1.8 0.9-2.4 1.1-0.5 0.2-2 0.4-3.3 0.5-2.1 0.1-2.4 0.1-3.1-0.3-0.4-0.3-0.9-0.9-1.1-1.4-0.2-0.4-0.7-1.1-1-1.4-0.3-0.3-0.9-1.3-1.3-2.2-0.5-0.9-1.2-2.2-1.8-2.9-0.5-0.8-1.4-2-1.9-2.9-0.6-0.8-1.5-2.5-2.1-3.6-0.6-1.2-1.1-2.2-1-2.2 0.1-0.1 0.4 0.1 0.8 0.3 0.4 0.3 0.7 0.4 0.7 0.3 0-0.2-0.6-1.3-1.4-2.5-0.8-1.2-1.8-3-2.3-4-0.5-1-1-2.2-1.2-2.7-0.2-0.5-0.2-0.9-0.1-1 0.2 0 0.6 0.4 1 0.9 0.4 0.6 1.3 1.9 1.9 2.9 0.6 1 1.1 1.8 1.2 1.7 0-0.1-0.1-0.6-0.3-1.1-0.3-0.4-0.7-1.2-1-1.8-0.3-0.5-0.7-1.3-0.9-1.9-0.1-0.5-0.3-1-0.3-1.2-0.1-0.1 0-0.4 0.1-0.6 0.2-0.3 0.4-0.2 1.2 0.5 0.5 0.4 1 0.7 1.1 0.7 0-0.1-0.4-1.4-1.1-2.9-0.6-1.6-2-4.7-3-6.8-1-2.2-2.4-5.1-3.1-6.5-0.7-1.4-1.2-2.5-1.2-2.6 0.1-0.1 0.6 0.2 1.3 0.7 0.6 0.4 1.3 0.7 1.5 0.7 0.4 0 0.4-0.1 0.2-0.6-0.1-0.4-0.6-1.1-1.1-1.5-0.4-0.5-0.8-0.9-0.8-1 0-0.1 0.1-0.2 0.2-0.2 0.2 0 1.2 0.9 2.3 2 1.3 1.2 2.1 1.8 2 1.5 0-0.2 0.2-0.4 0.3-0.4 0.2 0 1 0.7 1.8 1.6 0.9 0.9 2.8 3.2 4.3 5 1.6 1.9 4.1 5 5.7 7 1.6 1.9 3.7 4.2 4.7 5.2 0.9 0.9 2.3 1.9 2.9 2.3 0.7 0.3 1.7 0.6 2.4 0.7 0.9 0.1 1.5 0.1 2.3-0.3 0.8-0.3 1.2-0.7 2.2-2.2 0.6-1 1.9-3.4 2.9-5.4 1-1.9 2.6-5.6 3.5-8.1 1-2.5 2.3-6.1 2.9-8 0.6-1.9 1.2-3.8 1.4-5.1l-1.7 1.4c-1 0.8-2.3 1.9-3.8 3.4l-1.4-0.2c-0.8-0.1-1.8-0.4-2.4-0.7-0.6-0.2-1.2-0.7-1.7-1.6l-0.7 0.5c-0.3 0.2-0.8 0.4-1 0.4-0.2 0-0.9-0.3-1.7-0.8-0.7-0.5-1.6-0.9-1.9-1q-0.7-0.2-0.7-0.7c0-0.2-0.1-1-0.3-1.6-0.2-0.8-0.7-1.7-1.4-2.5-0.6-0.7-1.6-1.9-2.2-2.5-1.1-1.1-1.4-1.6-2.3-4-0.5-1.5-1.7-4.2-2.6-5.9-0.8-1.9-1.6-3.8-1.7-4.5-0.1-0.6-0.5-2.1-1.4-5.2l1.3-3.8c0.7-2.1 1.7-5 2.2-6.5 0.4-1.4 0.8-2.8 0.8-3 0-0.2 0.1-0.5 0.2-0.5 0.2-0.1 0.3 0 0.4 0.1 0 0.2 0.3 1.1 0.7 2 0.3 0.9 0.8 2 1.1 2.3 0.2 0.4 0.5 0.7 0.7 0.7 0.1 0 0.4-1 0.6-2.1 0.2-1.2 0.3-2.5 0.3-3 0-0.5 0.1-0.9 0.2-0.9 0.1 0 0.4 0.2 0.6 0.5 0.2 0.3 0.5 0.5 0.6 0.5 0.1 0 0.4-0.6 0.6-1.2 0.2-0.7 0.9-1.7 1.4-2.3 0.7-0.8 1.1-1 1.2-0.8 0.1 0.2 0.4 1.4 0.8 2.7 0.3 1.3 0.7 2.6 0.7 2.8 0.1 0.3 0.2 0.4 0.4 0.3 0.1 0 0.2-0.5 0.2-1.1 0-0.6 0.2-1.6 0.4-2.3 0.2-0.8 0.5-1.5 0.6-1.6 0.1-0.1 0.2 0 0.3 0.4 0.1 0.3 0.5 0.9 0.8 1.3 0.2 0.4 0.7 1.2 0.8 1.9 0.2 0.7 0.5 1.8 0.5 2.6 0.1 0.8 0.3 1.3 0.5 1.3 0.2 0 3.3-1.3 13.6-6.1v-1c-0.1-0.6-0.4-1.6-0.7-2.3-0.3-0.6-1.2-1.8-1.9-2.5-0.8-0.8-2.1-1.7-3-2.1-0.8-0.4-2.4-1-3.4-1.2-1.1-0.3-2.3-0.8-2.7-1.1-0.4-0.3-1-1-1.4-1.4-0.3-0.4-0.6-0.9-0.6-1.1 0-0.1 0.3-0.4 0.6-0.6 0.4-0.2 1.1-0.5 1.7-0.7 1.1-0.3 1.1-0.2 1.6 0.4 0.4 0.4 0.8 0.6 1.8 0.7 1 0.2 1.4 0.1 1.8-0.2 0.3-0.2 1-0.3 1.5-0.3 0.6 0 1.6 0.2 2.2 0.4 0.7 0.3 1.2 0.4 1.2 0.3 0-0.1-0.1-0.3-0.2-0.4-0.1 0-0.2-0.2-0.2-0.3 0-0.2 0.1-0.3 0.2-0.3 0.1 0 1 0.6 2 1.3 0.9 0.7 2.2 1.6 2.9 1.9 0.6 0.3 2.7 1.7 4.5 3 1.9 1.2 3.7 2.6 4 3 0.3 0.4 0.9 1.4 1.3 2.2 0.4 0.8 0.8 1.9 0.8 2.3 0 0.4-0.3 1.3-0.6 2-0.3 0.6-0.7 1.3-0.8 1.5-0.2 0.3-0.4 0.2-2.4-1.8l-0.1 3.1c-0.1 1.7-0.3 5.3-0.5 7.9-0.2 2.6-0.5 5.5-0.7 6.5-0.1 1-0.2 1.8-0.1 1.8 0 0.1 0.5-0.2 1-0.6 0.5-0.4 2-1.7 3.2-2.9 1.2-1.2 3.8-4.1 5.6-6.5 1.9-2.3 4.8-6.2 6.6-8.4 2.4-3.2 3.5-4.8 4.3-6.7 0.7-1.4 1.3-2.8 1.3-3.1 0.1-0.3 0-0.5-0.2-0.5-0.1 0-0.4-0.1-0.6-0.3-0.2-0.2-0.1-0.4 0.3-1 0.4-0.4 0.6-0.9 0.6-1.4 0-0.5 0.4-1.2 1.1-2.3 0.6-0.9 1.1-1.8 1.1-2.1 0-0.4 0.1-0.5 0.5-0.5 0.3 0 1.1 0.2 1.7 0.5 0.7 0.3 1.6 0.9 2.1 1.4 0.4 0.4 1 1.2 1.3 1.6 0.3 0.5 0.9 1.2 1.3 1.6 0.5 0.5 1.5 1.2 2.3 1.6 0.8 0.5 2.3 1.2 3.4 1.6 1.1 0.4 3.5 1.5 5.3 2.3 2.3 1.2 3.5 1.9 4.2 2.7 0.6 0.6 1.4 1.7 1.8 2.5 0.3 0.8 0.8 2 0.9 2.8 0.1 0.7 0.2 1.9 0.2 2.7 0 0.8 0.2 2 0.4 2.6 0.3 1.1 0.3 1.3 0 1.8-0.3 0.4-0.5 0.5-1 0.3-0.4 0-1-0.1-1.4-0.1-0.4 0.1-1.4 0.3-2.3 0.7-1.6 0.5-1.7 0.5-2 0.1-0.2-0.2-0.3-0.5-0.3-0.7-0.1-0.1-0.1-0.3-0.1-0.3 0 0-0.6 0.2-1.1 0.4-0.6 0.2-2 1-3.1 1.7-1.2 0.7-3.3 1.9-4.7 2.6-1.4 0.7-2.8 1.3-3 1.3-0.3 0-0.4-0.2-0.3-0.5 0-0.3 0-0.5 0-0.5-0.1 0-0.8 0.4-1.6 0.8-0.9 0.4-2.3 1.2-3.2 1.9-0.9 0.6-2.9 2-4.3 3.1-1.4 1-3.5 2.4-4.7 2.9-1.1 0.6-3.1 1.5-4.5 2-1.4 0.5-3 1.1-3.6 1.2-0.6 0.1-1.1 0.2-1.2 0.2 0-0.1 0.3-0.5 0.7-0.9 0.4-0.4 0.8-0.9 0.8-1 0-0.1-0.7 0.2-1.6 0.7-0.9 0.5-1.8 0.8-1.9 0.8-0.1-0.1 0.1-0.4 0.5-0.8 0.4-0.3 0.6-0.7 0.5-0.8-0.1-0.1-1.1 0.5-2.2 1.3-1.2 0.8-2.9 1.8-3.8 2.3-1.2 0.6-1.7 1-1.8 1.4-0.1 0.3-0.7 2.9-2.4 10.8l0.6 1.3c0.5 0.9 1.5 2.1 3.1 3.7 1.3 1.2 2.5 2.3 2.6 2.3 0.1 0 0.7-0.3 1.2-0.7 0.6-0.4 1.1-0.7 1.2-0.7 0-0.1 0.2 0.5 0.3 1.2 0.2 0.8 0.6 1.6 1.2 2.3 0.5 0.6 1.4 1.8 2 2.5 0.6 0.8 1.5 2 2.1 2.6 0.6 0.7 2.5 2.4 4.2 3.8 1.7 1.5 3.6 3.1 4.1 3.6 0.6 0.5 1 1.1 1 1.2 0 0.2 0.3 0.7 0.6 1.1 0.3 0.3 0.9 0.7 1.4 0.8 0.4 0.1 2.2 1 4 2.1 3.2 1.9 3.2 1.9 4.5 1.8q1.4-0.1 3.3 0.3c1 0.3 2.3 0.5 2.9 0.5 0.7 0 1-0.1 1.1-0.4 0.1-0.3 0-0.7-0.3-1.1-0.3-0.3-0.5-0.7-0.5-0.8 0.1 0 0.5-0.2 0.9-0.3 0.7-0.1 0.9-0.3 0.9-1.5l1.6 0.1c1 0.1 2.2 0.4 2.9 0.6 0.7 0.3 1.2 0.5 1.3 0.4 0 0-0.3-0.4-0.6-0.7-0.4-0.3-1.3-1-1.9-1.6-0.7-0.6-1.3-1.1-1.4-1.3-0.1-0.2 0-0.3 0.4-0.1 0.3 0.1 1.5 0.7 2.7 1.3 1.2 0.6 2.7 1.2 3.4 1.5q1.4 0.4 2.4 0.3c0.7-0.1 1.4-0.4 1.9-0.9 0.5-0.4 1.5-1.6 2.2-2.7 0.8-1.1 2.7-4.3 4.3-7.2 1.6-2.9 3.1-5.8 3.4-6.5 0.3-0.6 1.2-3 1.9-5.2 0.8-2.2 1.8-5.5 2.3-7.3 0.5-1.8 1.3-4.7 1.8-6.5 0.4-1.9 1-4.6 1.3-6 0.3-1.4 0.7-4.1 1-6 0.2-1.8 0.5-5 0.8-10.9l-2.5 1.7c-1.6 1.1-3.1 2.4-4.2 3.6-0.9 1-2.3 2.4-3.1 3.1-0.8 0.8-2.9 2.6-4.6 4.1-1.8 1.5-3.6 3.1-4.1 3.7-0.5 0.5-1.1 1.4-1.3 2-0.3 0.9-0.3 1.3-0.1 2 0.1 0.6 0.5 1.6 0.9 2.2 0.5 0.8 0.9 1.3 1.2 1.3 0.2 0 0.7 0.2 1 0.5 0.4 0.3 0.8 0.8 1 1.5 0.1 0.5 0.2 1.7 0.2 2.6 0 1 0.1 2.1 0.4 3.1 0.3 0.8 0.7 2.6 0.9 4 0.3 1.9 0.3 2.7 0.1 3.2-0.2 0.7-0.3 0.7-2.1 0.4l-1.5 1.7c-0.9 1-1.7 1.8-1.9 1.8-0.3 0-1.1-0.2-1.9-0.6-0.9-0.3-1.7-0.6-1.9-0.6-0.2 0-0.6 0.3-1 0.6-0.4 0.5-0.6 0.6-1 0.4-0.3-0.2-0.8-0.7-1.1-1.3-0.4-0.5-1.5-1.8-2.6-2.9-1-1-2.6-2.9-3.5-4.2-1-1.2-2.4-3.4-3.2-4.8-0.8-1.5-2-3.4-2.5-4.2-0.6-0.9-1.5-2.5-2.1-3.7-0.9-1.9-1-2.3-1-3.8 0-0.9 0.2-2.1 0.3-2.5 0.2-0.5 0.6-1.1 0.9-1.4 0.2-0.3 0.8-0.7 1.1-0.9 0.4-0.2 1-0.4 1.4-0.4 0.4 0 1.2 0.3 1.7 0.5 0.6 0.3 1.6 0.9 3.4 2.2l1.2-0.4c0.7-0.2 2.4-0.9 3.8-1.5 1.5-0.6 5.5-2.5 9-4.3 3.4-1.7 7.6-3.9 9.2-4.8 1.7-0.8 4.3-2.5 9-5.6v-3.1c-0.1-1.7-0.3-4.8-0.6-6.8-0.4-3.1-0.7-4.1-1.5-6.2-0.6-1.4-1.7-3.8-2.5-5.4-0.8-1.6-1.7-3.2-2.1-3.7-0.4-0.4-1.3-1.2-2.1-1.8-0.8-0.5-2.3-1.4-3.3-1.9-1.1-0.6-2.5-1.2-3.1-1.4-0.6-0.3-1.1-0.5-1.1-0.6 0-0.1 0.5-0.5 1.1-0.9 0.6-0.4 1.3-0.8 1.5-0.8 0.1-0.1 1 0 2 0.2 0.9 0.2 2 0.3 2.3 0.2 0.3-0.1 0.9-0.4 1.2-0.7 0.5-0.6 0.9-0.7 5.2-1.1 2.6-0.2 5.2-0.4 5.9-0.3zm-47.5-77.4c-0.4 0.3-1.2 0.9-1.7 1.4-0.6 0.4-2.1 1.9-3.4 3.3-1.5 1.7-2.7 3.3-3.5 4.7-0.6 1.2-1.4 2.3-1.6 2.6-0.3 0.3-0.8 0.8-1.1 1.2-0.3 0.4-0.5 1-0.5 1.5 0 0.6 0.3 1 1.3 2l1.3 1.2c-1.8 2.1-2.7 3.3-3.1 4.1-0.4 0.8-0.7 1.8-0.7 2.2 0 0.4 0.1 1 0.3 1.3 0.1 0.3 0.1 0.7-0.4 1.6-0.5 0.8-0.7 1.4-0.7 2.4 0 0.7 0.2 1.6 0.3 1.9 0.2 0.4 0.6 0.9 1 1.3l0.6 0.7c-0.5 3-0.6 5.2-0.6 6.9 0 1.6 0.1 4.1 0.2 5.6 0.2 1.4 0.3 2.9 0.4 3.2 0.1 0.4 0.2 0.7 0.4 0.6 0.2 0 0.8-1 1.5-2.2 0.6-1.2 1.6-3.2 2.2-4.6 0.6-1.4 1.5-3.8 2-5.3 0.5-1.5 1.6-4.8 2.3-7.2 0.8-2.5 1.6-5.5 1.8-6.7 0.2-1.2 0.6-3.6 0.9-5.4 0.2-1.8 0.8-6 1.1-9.4 0.4-3.4 0.8-6.9 0.9-7.8 0.1-1.2 0-1.6-0.2-1.6-0.1 0-0.6 0.2-1 0.5zm13.7 47.2c0 0.2 0.2 0.6 0.5 1 0.3 0.3 0.9 0.9 1.4 1.1 0.6 0.3 1 0.4 1.1 0.4 0.1-0.1-0.2-0.6-0.6-1.1-0.5-0.6-1.1-1.1-1.4-1.3-0.3-0.2-0.6-0.4-0.7-0.4-0.2 0-0.3 0.2-0.3 0.3zm0.6 3.1c0.1 0.1 0.6 0.4 1.1 0.7 0.5 0.2 1.1 0.5 1.2 0.5 0.1 0 0.2-0.1 0.1-0.3-0.1-0.1-0.5-0.4-1.1-0.7-0.5-0.3-1-0.5-1.2-0.5-0.1 0-0.2 0.1-0.1 0.3zm31.7 56.7c-0.1 0.6 0 1.4 0.1 1.8 0.2 0.6 0.3 0.5 0.3-1.1 0-1 0-1.9-0.1-1.9-0.1 0-0.2 0.6-0.3 1.2zm-82 1.9c-1.1 0.6-2.6 1.7-3.4 2.3-0.9 0.7-1.9 1.6-2.3 2.2-0.3 0.5-1.1 2.3-1.6 3.9-0.5 1.6-1.1 3.1-1.2 3.2-0.1 0.1-0.2 0.6-0.2 1 0 0.5 0.1 1.1 0.3 1.5 0.2 0.3 0.6 0.7 0.9 0.8 0.3 0.1 0.8 0.2 1.1 0.2 0.4 0 0.5 0.1 0.4 0.4-0.1 0.2-0.2 0.8-0.4 1.2-0.1 0.6-0.1 1.4 0.2 2.5 0.2 1 0.9 3.4 1.7 5.4 0.7 2 1.6 4.2 1.9 4.8 0.3 0.6 0.8 1.4 1.3 1.7 0.4 0.4 0.8 0.7 0.9 0.7 0.2 0 0.4-1 0.6-2.1 0.2-1.2 0.6-3.6 0.9-5.3 0.3-1.8 0.6-3.6 0.6-4.1 0.1-0.4 0.3-2.6 0.5-4.9 0.2-2.3 0.4-6.7 0.4-10.2 0-5.4 0-6.2-0.3-6.3-0.2 0-1.3 0.5-2.3 1.1zm82.6 4c0 0.1-0.2 0.9-0.4 1.8-0.2 0.8-0.3 3.2-0.4 5.2-0.1 2.6 0 3.5 0.1 2.9 0.1-0.5 0.4-2.4 0.6-4.3 0.2-1.9 0.4-4 0.3-4.7 0-0.6-0.1-1-0.2-0.9zm-71.7 17.9c-0.6 0.6-1.1 1.3-1.3 1.6-0.2 0.4-0.2 0.7-0.1 0.8 0.1 0.1 0.4-0.1 0.8-0.4 0.3-0.3 1-1.1 1.4-1.7 0.4-0.6 0.8-1.1 0.8-1.2 0-0.1-0.1-0.2-0.3-0.2-0.2 0-0.8 0.5-1.3 1.1zm76.7 22c-0.1 0.1-0.5 1.1-1 2.3-0.4 1.2-1.3 4.2-1.9 6.8-0.6 2.6-1.3 5.2-1.6 6-0.3 0.7-0.7 1.6-0.9 2l-0.5 0.8c1.4 0.3 3.3 0.3 5.2 0.2 1.9-0.1 4.7-0.3 6.1-0.5 1.5-0.2 2.8-0.5 3-0.7 0.1-0.2 0.3-0.7 0.3-1.2-0.1-0.5-0.1-0.8-0.2-0.8-0.1 0.1-1.2 0.2-2.5 0.2l-2.2 0.2c2.4-0.5 6-1 9.6-1.5 3.6-0.4 6.7-0.8 6.8-0.9 0-0.1-0.7-0.9-1.7-1.6-1-0.8-2.8-2-4-2.8-1.2-0.8-3.3-2.2-4.7-3-1.3-0.9-3.8-2.3-5.5-3.2-1.6-1-3.2-1.9-3.6-2.1-0.3-0.2-0.6-0.3-0.7-0.2zm-127.3 6.2c0 0.1 0.3 0.4 0.6 0.8 0.4 0.3 0.9 0.7 1.2 0.7 0.3 0.1 0.5 0 0.5-0.3 0-0.2-0.3-0.5-0.6-0.6-0.4-0.2-0.7-0.4-0.9-0.6-0.1-0.1-0.4-0.2-0.5-0.2-0.2 0-0.3 0.1-0.3 0.2zm130.6 12.3c-0.2 0.1-1.8 0.2-3.6 0.4-1.8 0.1-3.9 0.4-4.7 0.6-0.7 0.2-1.5 0.6-1.9 0.8-0.3 0.2-0.7 0.8-0.9 1.2l-0.4 0.7c16.5 0 22.1-0.1 23.1-0.2 1.3-0.1 1.9-0.3 2.3-0.6 0.3-0.3 0.5-0.5 0.5-0.6 0-0.1-0.4-0.3-1-0.5-0.6-0.3-1.7-0.6-2.5-0.8-0.7-0.2-2.3-0.5-3.4-0.6-1.1-0.1-3.2-0.3-4.7-0.4-1.4 0-2.7 0-2.8 0zm-126.2 2.9c0 0.1 0 0.6 0.1 1.1 0.2 0.5 0.9 1.7 1.6 2.6 0.8 1 1.6 1.9 1.8 2.1 0.3 0.2 0.5 0.3 0.6 0.2 0-0.1-0.4-1.1-0.9-2.1-0.6-1.1-1.5-2.5-2-3.1-0.6-0.6-1.1-0.9-1.2-0.8zm72.4 1.7c0 0.1 0.4 0.7 1 1.4 0.6 0.6 1.5 1.4 2 1.8l1 0.7c-0.7-1.2-1.5-2.1-2.2-2.8-0.7-0.7-1.4-1.3-1.6-1.3-0.1 0-0.2 0.1-0.2 0.2z"/></svg>